<?xml version="1.0" standalone="no"?>
<!DOCTYPE svg PUBLIC "-//W3C//DTD SVG 20010904//EN"
 "http://www.w3.org/TR/2001/REC-SVG-20010904/DTD/svg10.dtd">
<svg version="1.0" xmlns="http://www.w3.org/2000/svg"
 width="260.000000pt" height="260.000000pt" viewBox="0 0 260.000000 260.000000"
 preserveAspectRatio="xMidYMid meet">
<metadata>
Created by potrace 1.14, written by Peter Selinger 2001-2017
</metadata>
<g transform="translate(0.000000,260.000000) scale(0.100000,-0.100000)"
fill="#000000" stroke="none">
<path d="M222 2191 c13 -15 61 -75 108 -132 47 -57 90 -111 97 -119 6 -8 27
-33 45 -56 45 -55 91 -112 125 -154 15 -20 34 -42 41 -50 7 -8 58 -71 113
-140 55 -69 119 -147 142 -174 23 -27 43 -53 45 -57 4 -9 -60 -92 -205 -270
-43 -52 -134 -165 -203 -250 -68 -85 -168 -208 -222 -273 -54 -66 -98 -123
-98 -126 0 -4 158 -7 351 -7 l350 0 57 71 c31 39 64 79 72 89 8 11 20 24 25
31 6 6 67 81 135 166 69 85 133 164 142 175 148 176 307 382 304 391 -3 7 -64
85 -137 175 -73 90 -207 256 -298 369 -91 113 -173 214 -183 225 -9 11 -40 48
-68 83 l-52 62 -355 0 -354 0 23 -29z"/>
<path d="M1634 2148 c-32 -40 -64 -80 -71 -88 -7 -8 -46 -57 -87 -108 l-76
-93 88 -107 c48 -59 125 -155 172 -214 47 -59 90 -106 95 -104 10 2 96 107
357 431 67 83 159 196 205 253 l85 102 -355 0 -355 0 -58 -72z"/>
<path d="M1573 958 l-171 -213 26 -35 c29 -38 51 -66 67 -84 6 -6 48 -58 94
-116 46 -58 90 -110 98 -116 9 -8 118 -12 363 -11 l350 0 -37 46 c-21 25 -58
71 -83 102 -25 30 -61 75 -80 99 -19 24 -39 48 -45 54 -5 6 -37 45 -70 86 -33
41 -63 80 -67 85 -5 6 -17 20 -27 33 -32 39 -76 93 -152 187 -39 50 -77 91
-83 93 -6 1 -88 -94 -183 -210z"/>
</g>
</svg>
